PathFileType	4	(X/Y/Z)	C:\Users\Basilio\Documents\Thesis Gigler\squatting_fais\c3dfiles\073\SJ_pre2\markers_experimental.trc
DataRate	CameraRate	NumFrames	NumMarkers	Units	OrigDataRate	OrigDataStartFrame	OrigNumFrames
200.000000	200.000000	4	61	mm	200.000000	757	1514
Frame#	Time	FHD			LBHD			RBHD			C7			T10			CLAV			LSHO			LUUPA			LMUPA			LDUPA			LLEP			LMEP			LRAD			LUL			LRFIN			RSHO			RUPA1			RMUPA			RDUPA			RLEP			RMEP			RRAD			RUL			RUFIN			LASI			RASI			USACR			LSACR			RSACR			LTHI1			LTHI2			LTHI3			LTHI4			LLFC			LMFC			LTIB1			LTIB2			LTIB3			LTIB4			LLMAL			LMMAL			LHEE			LMT1			LMT2			LMT5			RTHI			RTHI2			RTHI3			RTHI4			RLFC			RMFC			RTIB1			RTIB2			RTIB3			RTIB4			RLMAL			RMMAL			RHEE			RMT1			RMT2			RMT5			
		X1	Y1	Z1	X2	Y2	Z2	X3	Y3	Z3	X4	Y4	Z4	X5	Y5	Z5	X6	Y6	Z6	X7	Y7	Z7	X8	Y8	Z8	X9	Y9	Z9	X10	Y10	Z10	X11	Y11	Z11	X12	Y12	Z12	X13	Y13	Z13	X14	Y14	Z14	X15	Y15	Z15	X16	Y16	Z16	X17	Y17	Z17	X18	Y18	Z18	X19	Y19	Z19	X20	Y20	Z20	X21	Y21	Z21	X22	Y22	Z22	X23	Y23	Z23	X24	Y24	Z24	X25	Y25	Z25	X26	Y26	Z26	X27	Y27	Z27	X28	Y28	Z28	X29	Y29	Z29	X30	Y30	Z30	X31	Y31	Z31	X32	Y32	Z32	X33	Y33	Z33	X34	Y34	Z34	X35	Y35	Z35	X36	Y36	Z36	X37	Y37	Z37	X38	Y38	Z38	X39	Y39	Z39	X40	Y40	Z40	X41	Y41	Z41	X42	Y42	Z42	X43	Y43	Z43	X44	Y44	Z44	X45	Y45	Z45	X46	Y46	Z46	X47	Y47	Z47	X48	Y48	Z48	X49	Y49	Z49	X50	Y50	Z50	X51	Y51	Z51	X52	Y52	Z52	X53	Y53	Z53	X54	Y54	Z54	X55	Y55	Z55	X56	Y56	Z56	X57	Y57	Z57	X58	Y58	Z58	X59	Y59	Z59	X60	Y60	Z60	X61	Y61	Z61	

758	3.785	95.94803619384767	1003.2109375	-969.1775512695315	-40.49814224243165	987.3828125000002	-989.6718750000002	-61.95833206176759	978.1072387695315	-855.6734008789065	-91.35147094726564	937.6467895507815	-920.347106933594	-392.1072082519532	814.779479980469	-911.2890625000002	-67.55562591552736	784.9061279296877	-918.8602294921877	-60.79038238525392	811.241638183594	-1084.738159179688	-144.1747436523438	818.4763793945315	-1212.645874023438	-175.0365600585938	779.815612792969	-1220.507080078125	-187.6119079589844	816.190368652344	-1267.1845703125	-277.1207580566407	800.4111328125002	-1329.916381835938	-322.3535461425782	871.222351074219	-1313.8408203125	-457.450897216797	704.8933105468751	-1153.771606445313	-436.5780639648439	643.0039672851564	-1190.32568359375	-438.9689941406251	691.2090454101564	-1094.237915039063	-61.38338088989259	806.0563964843752	-755.4882812500001	-147.4881439208985	836.3676757812502	-611.5250244140626	-177.6865844726563	799.703063964844	-597.5739135742189	-193.4882202148438	843.687927246094	-559.1093139648439	-270.3177490234376	823.9866333007815	-502.7461242675782	-325.7357788085938	888.9779052734377	-545.4109497070314	-461.3172302246095	709.5444946289064	-659.9309082031251	-429.0716552734376	649.4902954101564	-625.9829101562501	-426.6842041015626	688.4801635742189	-722.0831909179689	-428.207489013672	621.4235229492189	-1038.979858398438	-419.7853088378907	593.4655761718751	-801.864196777344	-511.9376220703126	766.2642822265626	-897.7351074218752	-543.2398071289064	756.7692871093751	-924.4204101562502	-542.6868896484376	753.5654296875001	-869.0132446289065	-345.0889587402344	532.8804931640626	-1155.672607421875	-259.1683349609376	531.8002319335939	-1164.071411132813	-237.4644165039063	564.8948974609376	-1134.056640625	-225.6181793212891	479.7117309570314	-1165.489501953125	-188.8453674316407	443.0164794921876	-1171.895874023438	-168.0908966064453	426.0318298339845	-1048.28857421875	-205.8350372314454	254.1517486572266	-1136.041870117188	-281.9263305664063	254.098861694336	-1183.969360351563	-251.2941589355469	228.1362915039063	-1164.826293945313	-289.2120361328126	160.0615692138672	-1132.119995117188	-403.4388122558595	87.50689697265626	-1158.652587890625	-380.3470153808594	103.4569396972657	-1071.86181640625	-466.185760498047	53.63316345214845	-1114.725463867188	-236.454330444336	54.10923385620119	-1106.3837890625	-240.7727966308594	54.33679199218751	-1144.71533203125	-281.0924987792969	36.50004959106446	-1196.365356445313	-416.0458374023439	536.3778076171876	-672.7865600585939	-350.4328002929688	537.5194091796876	-664.9481811523439	-332.5881652832032	564.6142578125001	-673.5900878906251	-298.3376464843751	473.5038146972657	-657.2277221679689	-178.9151763916016	406.3109130859376	-652.5265502929689	-160.3219604492188	385.5370483398439	-771.1082763671877	-209.3887481689454	251.0146636962891	-730.5566406250001	-281.1432189941407	205.6636810302735	-662.2161254882814	-262.5938720703126	189.1483764648438	-702.9868164062501	-302.3895874023438	161.3656616210938	-734.3609619140626	-418.9151916503907	85.67899322509767	-676.5326538085939	-399.0398559570314	95.57246398925783	-765.3392333984376	-492.6374511718751	49.37098312377931	-733.0493774414064	-264.0042724609376	54.04315567016603	-701.2420654296876	-271.9249572753907	55.15029525756837	-661.4914550781251	-320.7804260253907	36.95569610595704	-618.8914184570314	
759	3.79	96.16491699218753	1002.593383789063	-969.2205810546877	-40.23113250732423	986.8128051757815	-989.5538330078127	-61.69972991943361	977.5000610351565	-855.622253417969	-91.1047821044922	937.178405761719	-920.2807617187502	-391.9783630371095	814.6113281250002	-911.2689208984377	-67.41851806640626	784.3737792968752	-918.806579589844	-60.84904098510744	810.517517089844	-1084.739501953125	-143.9060211181641	818.0981445312502	-1212.559204101563	-174.8625183105469	779.4895019531252	-1220.525024414063	-187.3777313232422	815.998962402344	-1267.173461914063	-276.9800415039063	800.2319946289065	-1329.865478515625	-322.1028747558594	871.1426391601565	-1313.76123046875	-457.3238220214845	704.9042968750001	-1153.794067382813	-436.6018981933595	643.0024414062501	-1190.366088867188	-439.4619140625001	691.4994506835939	-1094.21142578125	-61.22607040405275	805.4310302734377	-755.4499511718751	-147.3381042480469	835.885437011719	-611.4254760742189	-177.6013488769532	799.2943115234377	-597.5241699218751	-193.3551788330079	843.3023071289065	-559.0376586914064	-270.2212524414063	823.738464355469	-502.7724914550782	-325.5877685546876	888.8289184570315	-545.4260864257814	-461.3245849609376	709.5808105468751	-659.9914550781251	-429.1184387207032	649.4799194335939	-626.0484619140626	-426.7640075683595	688.4873046875001	-722.1237792968751	-428.1499023437501	621.5606079101564	-1039.114990234375	-419.5694885253907	593.4908447265626	-802.0327758789065	-511.8805236816407	766.3005371093751	-897.7298583984377	-543.1832275390626	756.8023681640626	-924.4495239257815	-542.5612182617189	753.5880737304689	-869.037536621094	-345.0961608886719	532.8858032226564	-1155.692626953125	-259.1609191894532	531.8298950195314	-1164.053466796875	-237.4619903564454	564.9243774414064	-1134.078369140625	-225.6006927490235	479.7275390625001	-1165.469360351563	-188.8721771240235	442.9485168457032	-1171.898071289063	-168.140869140625	425.9501037597657	-1048.255737304688	-205.8571014404297	254.147445678711	-1136.067993164063	-281.9428100585938	254.077133178711	-1183.912963867188	-251.2080383300782	228.1587524414063	-1164.836059570313	-289.3151550292969	160.0335235595703	-1132.193725585938	-403.4929504394532	87.45941162109376	-1158.705932617188	-380.3654785156251	103.4406356811524	-1071.871704101563	-466.1807556152345	53.61015701293947	-1114.751220703125	-236.5051727294922	54.09072875976564	-1106.393676757813	-240.7718963623047	54.33055877685548	-1144.708129882813	-280.8757934570313	37.07324600219727	-1196.431762695313	-416.0824279785157	536.4366455078126	-672.9101562500001	-350.4728698730469	537.5532836914064	-665.1793823242189	-332.6164550781251	564.6575927734376	-673.7063598632814	-298.3802185058594	473.5179138183595	-657.4076538085939	-178.9512023925782	406.3576049804689	-652.7526245117189	-160.4221801757813	385.4747619628907	-771.3201904296877	-209.4445037841797	250.9669799804688	-730.7117309570314	-281.1494445800782	205.6469421386719	-662.3670654296876	-262.6028442382813	189.1163024902344	-703.1239624023439	-302.4700012207032	161.3448028564453	-734.4533691406251	-418.9567260742189	85.71912384033205	-676.4882202148439	-399.0692443847657	95.51514434814455	-765.3687744140626	-492.6470947265626	49.35946273803712	-733.0287475585939	-264.0363159179688	54.06498336791994	-701.2092285156251	-271.9252319335938	55.1405487060547	-661.5203857421876	-320.8027954101563	36.95880126953126	-618.8469848632814	
760	3.795	96.42640686035159	1001.98876953125	-969.2075195312502	-40.07463073730469	986.274353027344	-989.4333496093752	-61.41286849975587	976.9344482421877	-855.5772705078127	-90.86553955078126	936.7092285156252	-920.230407714844	-391.8106079101564	814.4833984375002	-911.2661132812502	-67.59386444091798	783.656921386719	-918.876892089844	-59.42250061035158	810.3962402343752	-1084.539184570313	-143.6582794189453	817.7376098632815	-1212.481079101563	-174.5649719238282	779.1940917968752	-1220.713500976563	-187.2367706298828	815.6929321289065	-1267.16650390625	-276.7810974121094	800.0799560546877	-1329.871459960938	-321.8687133789063	871.0681152343752	-1313.695190429688	-457.589813232422	705.1064453125001	-1153.867553710938	-436.6696166992189	643.0472412109376	-1190.433959960938	-439.716522216797	691.6319580078126	-1094.193237304688	-61.06331253051759	804.8464355468752	-755.3618774414064	-147.2113800048828	835.4337158203127	-611.4282226562501	-177.5017395019532	798.920104980469	-597.5065307617189	-193.207015991211	842.8860473632815	-559.0529785156251	-270.0985412597657	823.5540161132815	-502.7229003906251	-325.3385620117188	888.6704711914065	-545.4382934570314	-461.3259887695314	709.5816040039064	-659.9907226562501	-429.1842346191407	649.4234619140626	-626.1170043945314	-426.8409423828126	688.5112915039064	-722.0171508789064	-428.2922973632814	621.5122070312501	-1039.224243164063	-419.9252014160157	593.1457519531251	-802.1843872070315	-511.7283630371095	766.3195190429689	-897.7740478515627	-543.0606079101564	756.9082641601564	-924.466247558594	-542.5216674804689	753.6177368164064	-869.0513916015627	-345.1535339355469	532.9288940429689	-1155.693237304688	-259.1900024414063	531.8552856445314	-1164.077026367188	-237.4922180175782	564.9154663085939	-1134.033569335938	-225.6605224609376	479.7160644531251	-1165.52978515625	-188.8932342529297	443.0135803222657	-1171.88232421875	-168.1379852294922	425.9972229003907	-1048.193481445313	-205.9390106201172	254.1281738281251	-1135.986083984375	-281.9400329589844	254.0812225341797	-1183.935668945313	-251.2729797363282	228.1146392822266	-1164.840087890625	-289.2898559570313	159.9723510742188	-1132.20166015625	-403.5251464843751	87.42158508300783	-1158.704711914063	-380.4349975585938	103.4474334716797	-1071.908447265625	-466.2108459472657	53.596736907959	-1114.776123046875	-236.7698059082032	53.93592071533205	-1106.4208984375	-240.9670715332032	54.1167678833008	-1144.729858398438	-281.0259704589844	36.5008659362793	-1196.36767578125	-416.119842529297	536.4317016601564	-673.0278320312501	-350.5412292480469	537.5496826171876	-665.3231811523439	-332.6782531738282	564.6967773437501	-673.8548583984376	-298.4253540039063	473.537078857422	-657.6715087890626	-178.9861755371094	406.380096435547	-653.0086669921876	-160.5529174804688	385.4798278808595	-771.6184692382815	-209.4415893554688	250.9454803466797	-730.8138427734376	-281.1804199218751	205.6338958740235	-662.4887084960939	-262.6374816894532	189.074447631836	-703.1892700195314	-302.4362182617188	161.3042602539063	-734.5356445312501	-418.978485107422	85.67828369140626	-676.5264892578126	-399.0641479492189	95.45391845703126	-765.3731079101564	-492.663543701172	49.300594329834	-733.0263671875001	-264.0563659667969	54.06358718872072	-701.2044067382814	-271.9376525878907	55.16503524780275	-661.5018920898439	-320.8192138671876	36.96003341674805	-618.8505859375001	
761	3.8	96.83943176269534	1001.39013671875	-969.0549926757815	-39.7506332397461	985.695983886719	-989.397644042969	-61.1223831176758	976.4673461914065	-855.4690551757815	-90.61333465576173	936.2531738281252	-920.206726074219	-391.6679077148439	814.3338623046877	-911.299011230469	-67.12707519531251	783.2513427734377	-918.7528076171877	-60.14862442016603	809.4945068359377	-1084.499267578125	-143.4082183837891	817.3741455078127	-1212.356689453125	-174.3142700195313	778.8291015625002	-1220.640747070313	-187.2319641113282	815.4713134765627	-1267.058715820313	-276.5694885253907	799.965270996094	-1329.845947265625	-321.5192565917969	870.977722167969	-1313.596069335938	-457.5478515625001	705.1525268554689	-1153.917846679688	-436.6377868652345	643.0664672851564	-1190.432861328125	-439.634979248047	691.6517333984376	-1094.235229492188	-60.8539390563965	804.2898559570315	-755.2579956054689	-147.0553741455078	835.0595703125002	-611.3673095703126	-177.4303894042969	798.4922485351565	-597.4512939453126	-193.0932312011719	842.5228271484377	-558.9747314453126	-269.9466552734376	823.349548339844	-502.7327575683595	-325.1442565917969	888.4690551757815	-545.4593505859376	-461.3791503906251	709.5838012695314	-660.0370483398439	-429.2145996093751	649.4019165039064	-626.1265258789064	-426.8877868652345	688.5210571289064	-722.0890502929689	-428.2073059082032	621.5686645507814	-1039.201782226563	-419.9964904785157	593.1237182617189	-802.1805419921877	-511.6465759277345	766.3955688476564	-897.7734985351565	-542.9601440429689	757.0044555664064	-924.4752197265627	-542.4608764648439	753.6997680664064	-869.067565917969	-345.1863098144532	532.9952392578126	-1155.757690429688	-259.1983032226563	531.8914184570314	-1164.046997070313	-237.5262298583985	564.9492187500001	-1133.995727539063	-225.7407684326172	479.7280578613282	-1165.487426757813	-188.9695587158203	442.9803161621095	-1171.82763671875	-168.3182373046875	425.9437561035157	-1048.203002929688	-205.9328613281251	254.1320495605469	-1135.993774414063	-282.0051269531251	254.0609436035157	-1183.878662109375	-251.3559112548829	228.0453186035157	-1164.890747070313	-289.2846374511719	159.9586486816407	-1132.156616210938	-403.5694580078126	87.38912963867189	-1158.738891601563	-380.4145812988282	103.3931045532227	-1071.935668945313	-466.2276611328126	53.55837631225587	-1114.835571289063	-236.5156250000001	54.1327476501465	-1106.470947265625	-240.8700561523438	54.23244476318361	-1144.743408203125	-281.1047058105469	36.47472000122071	-1196.416015625	-416.2025756835939	536.5039062500001	-673.1021728515626	-350.5875549316407	537.6027832031251	-665.5039672851564	-332.7469482421876	564.7081298828126	-673.9762573242189	-298.4883422851563	473.5734863281251	-657.8617553710939	-179.1005249023438	406.4005432128907	-653.2141113281251	-160.5018615722657	385.473846435547	-771.8542480468752	-209.4243774414063	250.8787689208985	-730.9680175781251	-281.1934509277344	205.6933593750001	-662.6041259765626	-262.6302795410157	189.1354522705078	-703.3314208984376	-302.3008422851563	161.1316986083985	-734.5684204101564	-419.0354003906251	85.66190338134767	-676.5245361328126	-398.9768981933595	95.37290191650392	-765.3775024414064	-492.686492919922	49.23269653320314	-732.9762573242189	-264.1790161132813	54.0046844482422	-701.2885131835939	-271.9457702636719	55.16856765747072	-661.5271606445314	-320.8270568847657	36.95047760009766	-618.8136596679689	
